<svg width="60" height="16" viewBox="0 0 60 16" fill="none" xmlns="http://www.w3.org/2000/svg">
<path d="M14.54 16H9.1L5.6 9.24H4.86L5 16H0.04C0.106667 13.16 0.14 10.62 0.14 8.38C0.14 6.15333 0.106667 3.60667 0.04 0.74H5L4.86 7.34H5.6L9.04 0.74H14.28L11.18 6.48C10.9667 6.88 10.7467 7.17333 10.52 7.36C10.3067 7.54667 9.99333 7.68667 9.58 7.78C9.18 7.87333 8.52 7.98 7.6 8.1V8.38C8.54667 8.48667 9.22 8.59333 9.62 8.7C10.02 8.79333 10.32 8.93333 10.52 9.12C10.72 9.30667 10.9333 9.62 11.16 10.06L14.54 16ZM16.7431 16C16.7831 14.9733 16.8098 13.7733 16.8231 12.4C16.8498 11.0267 16.8631 9.68667 16.8631 8.38C16.8631 5.66 16.8231 3.11333 16.7431 0.74H28.9231V4.32H21.6631V7.04L28.3631 6.88V9.84L21.6631 9.68V12.42H28.9631V16H16.7431ZM31.5713 16C31.6379 13.16 31.6713 10.62 31.6713 8.38C31.6713 6.12667 31.6379 3.58 31.5713 0.74H36.6113C36.5579 2.99333 36.5313 5.34 36.5313 7.78C36.5313 9.26 36.5446 10.7333 36.5713 12.2C38.1979 12.2 40.1179 12.1867 42.3313 12.16L41.9913 16H31.5713ZM43.3123 16C43.5657 15.3067 43.879 14.5067 44.2523 13.6C44.639 12.68 44.899 12.06 45.0323 11.74C45.379 10.9667 45.6723 10.2733 45.9123 9.66C46.0457 9.32667 46.3857 9.03333 46.9323 8.78C47.479 8.51333 48.059 8.38 48.6723 8.38V8.06C47.9923 8.06 47.3923 7.95333 46.8723 7.74C46.3657 7.51333 46.039 7.18667 45.8923 6.76L44.9923 4.58C44.339 3.07333 43.819 1.79333 43.4323 0.74H48.7723L50.9923 6.94H51.4723L53.6723 0.74H59.0123C58.719 1.58 58.2123 2.85333 57.4923 4.56C57.2123 5.17333 56.9057 5.9 56.5723 6.74C56.4123 7.19333 56.099 7.52667 55.6323 7.74C55.1657 7.94 54.5523 8.05333 53.7923 8.08V8.38C54.4723 8.38 55.0723 8.51333 55.5923 8.78C56.1123 9.03333 56.439 9.4 56.5723 9.88C57.1057 11.2533 57.959 13.2933 59.1323 16H53.7723L51.4723 9.76H50.9923L48.6523 16H43.3123Z" fill="#1E1E1E"/>
</svg>
